# xmcd
#
# Track frame offsets: 
#        150
#        12307
#        25037
#        37892
#        52215
#        66485
#        81192
#        93197
#        107065
#        122450
#        131890
#        146207
#        165127
#        179592
#        192577
#
# Disc length: 2793 seconds
#
# Revision: 3
# Processed by: cddbd v1.5.2PL0 Copyright (c) Steve Scherf et al.
# Submitted via: ExactAudioCopy v1.3
#
DISCID=d00ae70f
DTITLE=Various Artist - Blues Story #29
DYEAR=1998
DGENRE=Blues
TTITLE0=Muddy Waters - I Can't Be Satisfied
TTITLE1=Willie Dixon - Crazy For My Baby
TTITLE2=Howlin' Wolf - Evil
TTITLE3=Otis Rush - So Many Roads, So Many Trains
TTITLE4=Little Walter - Sad Hours
TTITLE5=Eddie Boyd - Third Degree
TTITLE6=Otis Spann - I'm Leaving
TTITLE7=Lowell Fulson - Tollin' Bell
TTITLE8=Skip James - Worried Blues
TTITLE9=Bo Diddley - Crackin' Up
TTITLE10=Hound Dog Taylor - Watch Out
TTITLE11=Mississipi John Hurt - Staggerlee
TTITLE12=Dr John - Pineteop
TTITLE13=Willie Mabon - Seventh Son
TTITLE14=Rainer and Das Combo - Mushmind Blues
EXTD=
EXTT0=
EXTT1=
EXTT2=
EXTT3=
EXTT4=
EXTT5=
EXTT6=
EXTT7=
EXTT8=
EXTT9=
EXTT10=
EXTT11=
EXTT12=
EXTT13=
EXTT14=
PLAYORDER=
